<svg width="48" height="48" version="1" xmlns="http://www.w3.org/2000/svg">
 <path d="m21 44c-8 0-15-4-15-9v-14l-2-3 4-5 3 2 3-3v-4l6-2 2 4h4l2-4 6 2v4l3 3 3-2 4 5-2 3v14c0 5-7 9-15 9z" style="opacity:.2"/>
 <path d="m21 43c-8 0-15-4-15-9v-14l-2-3 4-5 3 2 3-3v-4l6-2 2 4h4l2-4 6 2v4l3 3 3-2 4 5-2 3v14c0 5-7 9-15 9z" style="fill:#3888c3"/>
 <path d="m6 33h7v4h7v-3h8v3h7v-4h7" style="fill:none;opacity:.2;stroke-linejoin:round;stroke-width:2;stroke:#000000"/>
 <path d="m6 32h7v4h7v-3h8v3h7v-4h7" style="fill:none;stroke-linejoin:round;stroke-width:2;stroke:#ffffff"/>
 <circle cx="15" cy="24" r="4" style="fill:#ffffff"/>
 <circle cx="15" cy="24" r="3" style="fill:#353535"/>
 <path d="m24 24v3" style="fill:none;stroke-linecap:round;stroke-width:4;stroke:#ffffff"/>
 <circle cx="33" cy="24" r="4" style="fill:#ffffff"/>
 <circle cx="33" cy="24" r="3" style="fill:#353535"/>
 <path d="m20 5-6 2v1l6-2 2 4h4l2-4 6 2v-1l-6-2-2 4h-4zm-6 6-3 3-3-2-4 5 0.3632812 0.544922 3.6367188-4.544922 3 2 3-3zm20 0v1l3 3 3-2 3.636719 4.544922 0.363281-0.544922-4-5-3 2z" style="fill:#ffffff;opacity:.2"/>
</svg>
